<svg xmlns="http://www.w3.org/2000/svg" version="1.1" xmlns:xlink="http://www.w3.org/1999/xlink" xmlns:svgjs="http://svgjs.dev/svgjs" width="1440" height="560" preserveAspectRatio="none" viewBox="0 0 1440 560"><g mask="url(&quot;#SvgjsMask1000&quot;)" fill="none"><rect width="1440" height="560" x="0" y="0" fill="#1e3266"></rect><path d="M1536 560L0 560 L0 357.9Q29.31 315.2, 72 344.51Q100.73 253.24, 192 281.97Q240.76 258.73, 264 307.49Q356.72 280.21, 384 372.93Q402.38 271.31, 504 289.68Q548.95 262.63, 576 307.59Q641.64 301.23, 648 366.87Q668.43 315.3, 720 335.73Q744.65 288.38, 792 313.03Q821.61 270.64, 864 300.25Q928.51 292.76, 936 357.28Q977.32 326.6, 1008 367.91Q1051.18 291.09, 1128 334.27Q1154.71 288.98, 1200 315.68Q1258.7 302.38, 1272 361.08Q1274.12 291.2, 1344 293.32Q1420.21 297.53, 1416 373.75Q1461.78 299.53, 1536 345.32z" fill="#182f5d"></path><path d="M1560 560L0 560 L0 377.44Q58.69 364.13, 72 422.82Q140.53 371.35, 192 439.87Q211.04 386.91, 264 405.95Q335 356.95, 384 427.96Q385.2 357.16, 456 358.37Q532.56 314.93, 576 391.49Q620.93 364.42, 648 409.35Q654.86 344.21, 720 351.06Q791.02 302.09, 840 373.11Q928.09 341.2, 960 429.29Q1009.74 359.03, 1080 408.77Q1110.68 367.45, 1152 398.13Q1201.82 375.94, 1224 425.76Q1227.61 357.37, 1296 360.98Q1340.27 333.25, 1368 377.53Q1421.57 359.1, 1440 412.67Q1509.8 362.47, 1560 432.26z" fill="#25467d"></path><path d="M1464 560L0 560 L0 494.54Q26.93 449.47, 72 476.4Q99.07 431.47, 144 458.54Q201.94 444.48, 216 502.42Q259.28 425.7, 336 468.97Q396.07 457.05, 408 517.12Q433.15 470.27, 480 495.43Q524 419.43, 600 463.42Q659.75 451.17, 672 510.92Q692.36 459.28, 744 479.64Q789.63 405.26, 864 450.89Q908.12 423, 936 467.12Q1005.26 416.38, 1056 485.65Q1107.54 465.19, 1128 516.73Q1158.5 427.23, 1248 457.73Q1267.91 405.64, 1320 425.55Q1363.08 396.63, 1392 439.71Q1445.58 421.29, 1464 474.87z" fill="#356cb1"></path><path d="M1560 560L0 560 L0 505.89Q79.57 465.46, 120 545.04Q189.96 495, 240 564.96Q263.79 468.75, 360 492.54Q440.32 452.86, 480 533.18Q534.81 467.99, 600 522.8Q685.75 488.55, 720 574.31Q765.17 499.48, 840 544.65Q865.11 497.76, 912 522.87Q964.63 455.5, 1032 508.13Q1081.4 485.53, 1104 534.93Q1144.16 455.09, 1224 495.25Q1270.41 469.67, 1296 516.08Q1348.71 496.79, 1368 549.5Q1410.98 520.48, 1440 563.46Q1480.9 484.36, 1560 525.26z" fill="white"></path></g><defs><mask id="SvgjsMask1000"><rect width="1440" height="560" fill="#ffffff"></rect></mask></defs></svg>